<svg width="53" height="47" viewBox="0 0 53 47" fill="none" xmlns="http://www.w3.org/2000/svg">
<rect width="53" height="47" rx="15" fill="#50AA50"/>
<path d="M20.41 34.45C18.47 34.45 16.77 34.02 15.31 33.16C13.85 32.28 12.72 31.02 11.92 29.38C11.14 27.74 10.75 25.79 10.75 23.53C10.75 21.27 11.14 19.32 11.92 17.68C12.7 16.04 13.81 14.78 15.25 13.9C16.71 13.02 18.43 12.58 20.41 12.58C22.39 12.58 24.1 13.02 25.54 13.9C27 14.78 28.12 16.04 28.9 17.68C29.68 19.32 30.07 21.27 30.07 23.53C30.07 25.79 29.67 27.74 28.87 29.38C28.09 31.02 26.97 32.28 25.51 33.16C24.05 34.02 22.35 34.45 20.41 34.45ZM20.41 29.47C21.75 29.47 22.79 28.95 23.53 27.91C24.27 26.87 24.64 25.43 24.64 23.59C24.64 21.73 24.27 20.27 23.53 19.21C22.81 18.13 21.77 17.59 20.41 17.59C19.05 17.59 18 18.13 17.26 19.21C16.54 20.27 16.18 21.73 16.18 23.59C16.18 25.43 16.55 26.87 17.29 27.91C18.03 28.95 19.07 29.47 20.41 29.47ZM35.8401 18.94L31.5801 22.03V16.81L36.7401 13.03H41.1501V34H35.8401V18.94Z" fill="white"/>
</svg>
