<svg width="53" height="47" viewBox="0 0 53 47" fill="none" xmlns="http://www.w3.org/2000/svg">
<rect width="53" height="47" rx="15" fill="#50AA50"/>
<path d="M17.41 34.45C15.47 34.45 13.77 34.02 12.31 33.16C10.85 32.28 9.72 31.02 8.92 29.38C8.14 27.74 7.75 25.79 7.75 23.53C7.75 21.27 8.14 19.32 8.92 17.68C9.7 16.04 10.81 14.78 12.25 13.9C13.71 13.02 15.43 12.58 17.41 12.58C19.39 12.58 21.1 13.02 22.54 13.9C24 14.78 25.12 16.04 25.9 17.68C26.68 19.32 27.07 21.27 27.07 23.53C27.07 25.79 26.67 27.74 25.87 29.38C25.09 31.02 23.97 32.28 22.51 33.16C21.05 34.02 19.35 34.45 17.41 34.45ZM17.41 29.47C18.75 29.47 19.79 28.95 20.53 27.91C21.27 26.87 21.64 25.43 21.64 23.59C21.64 21.73 21.27 20.27 20.53 19.21C19.81 18.13 18.77 17.59 17.41 17.59C16.05 17.59 15 18.13 14.26 19.21C13.54 20.27 13.18 21.73 13.18 23.59C13.18 25.43 13.55 26.87 14.29 27.91C15.03 28.95 16.07 29.47 17.41 29.47ZM28.5801 30.97L31.9101 27.94L33.3501 26.65C34.5301 25.61 35.4301 24.78 36.0501 24.16C36.6901 23.54 37.2101 22.91 37.6101 22.27C38.0301 21.63 38.2401 21 38.2401 20.38C38.2401 18.52 37.1901 17.59 35.0901 17.59C34.0701 17.59 33.0601 17.77 32.0601 18.13C31.0801 18.49 30.1701 18.99 29.3301 19.63V14.56C30.2301 13.94 31.2801 13.46 32.4801 13.12C33.6801 12.76 34.9601 12.58 36.3201 12.58C37.8801 12.58 39.2301 12.87 40.3701 13.45C41.5101 14.03 42.3801 14.83 42.9801 15.85C43.5801 16.87 43.8801 18.02 43.8801 19.3C43.8801 20.84 43.5201 22.19 42.8001 23.35C42.1001 24.49 40.9601 25.78 39.3801 27.22L36.7101 29.65H44.5401V34H28.5801V30.97Z" fill="white"/>
</svg>
