<svg width="53" height="47" viewBox="0 0 53 47" fill="none" xmlns="http://www.w3.org/2000/svg">
<rect width="53" height="47" rx="15" fill="#50AA50"/>
<path d="M17.41 34.45C15.47 34.45 13.77 34.02 12.31 33.16C10.85 32.28 9.72 31.02 8.92 29.38C8.14 27.74 7.75 25.79 7.75 23.53C7.75 21.27 8.14 19.32 8.92 17.68C9.7 16.04 10.81 14.78 12.25 13.9C13.71 13.02 15.43 12.58 17.41 12.58C19.39 12.58 21.1 13.02 22.54 13.9C24 14.78 25.12 16.04 25.9 17.68C26.68 19.32 27.07 21.27 27.07 23.53C27.07 25.79 26.67 27.74 25.87 29.38C25.09 31.02 23.97 32.28 22.51 33.16C21.05 34.02 19.35 34.45 17.41 34.45ZM17.41 29.47C18.75 29.47 19.79 28.95 20.53 27.91C21.27 26.87 21.64 25.43 21.64 23.59C21.64 21.73 21.27 20.27 20.53 19.21C19.81 18.13 18.77 17.59 17.41 17.59C16.05 17.59 15 18.13 14.26 19.21C13.54 20.27 13.18 21.73 13.18 23.59C13.18 25.43 13.55 26.87 14.29 27.91C15.03 28.95 16.07 29.47 17.41 29.47ZM35.4801 34.45C34.1601 34.45 32.8901 34.34 31.6701 34.12C30.4701 33.9 29.4401 33.57 28.5801 33.13V28.93C30.6001 29.85 32.6401 30.31 34.7001 30.31C37.4801 30.31 38.8701 29.48 38.8701 27.82C38.8701 26.98 38.5301 26.38 37.8501 26.02C37.1701 25.64 36.1101 25.45 34.6701 25.45H31.7601V21.4H34.5501C35.7301 21.4 36.6401 21.2 37.2801 20.8C37.9401 20.4 38.2701 19.81 38.2701 19.03C38.2701 18.29 37.9801 17.72 37.4001 17.32C36.8201 16.92 36.0001 16.72 34.9401 16.72C32.7601 16.72 30.7801 17.28 29.0001 18.4V14.11C29.9001 13.63 30.9301 13.26 32.0901 13C33.2501 12.72 34.4501 12.58 35.6901 12.58C38.4301 12.58 40.4501 13.13 41.7501 14.23C43.0501 15.31 43.7001 16.84 43.7001 18.82C43.7001 19.72 43.4801 20.57 43.0401 21.37C42.6201 22.17 41.9901 22.85 41.1501 23.41C43.2501 24.33 44.3001 25.89 44.3001 28.09C44.3001 30.11 43.6101 31.68 42.2301 32.8C40.8501 33.9 38.6001 34.45 35.4801 34.45Z" fill="white"/>
</svg>
