<svg width="53" height="47" viewBox="0 0 53 47" fill="none" xmlns="http://www.w3.org/2000/svg">
<rect width="53" height="47" rx="15" fill="#50AA50"/>
<path d="M16.91 34.45C14.97 34.45 13.27 34.02 11.81 33.16C10.35 32.28 9.22 31.02 8.42 29.38C7.64 27.74 7.25 25.79 7.25 23.53C7.25 21.27 7.64 19.32 8.42 17.68C9.2 16.04 10.31 14.78 11.75 13.9C13.21 13.02 14.93 12.58 16.91 12.58C18.89 12.58 20.6 13.02 22.04 13.9C23.5 14.78 24.62 16.04 25.4 17.68C26.18 19.32 26.57 21.27 26.57 23.53C26.57 25.79 26.17 27.74 25.37 29.38C24.59 31.02 23.47 32.28 22.01 33.16C20.55 34.02 18.85 34.45 16.91 34.45ZM16.91 29.47C18.25 29.47 19.29 28.95 20.03 27.91C20.77 26.87 21.14 25.43 21.14 23.59C21.14 21.73 20.77 20.27 20.03 19.21C19.31 18.13 18.27 17.59 16.91 17.59C15.55 17.59 14.5 18.13 13.76 19.21C13.04 20.27 12.68 21.73 12.68 23.59C12.68 25.43 13.05 26.87 13.79 27.91C14.53 28.95 15.57 29.47 16.91 29.47ZM37.1101 29.68H27.4801V26.38L37.4101 13.03H42.6601V25.48H45.6301V29.68H42.6601V34H37.1101V29.68ZM37.9201 25.48V19.48L33.5101 25.48H37.9201Z" fill="white"/>
</svg>
