<svg width="53" height="47" viewBox="0 0 53 47" fill="none" xmlns="http://www.w3.org/2000/svg">
<rect width="53" height="47" rx="15" fill="#50AA50"/>
<path d="M17.41 34.45C15.47 34.45 13.77 34.02 12.31 33.16C10.85 32.28 9.72 31.02 8.92 29.38C8.14 27.74 7.75 25.79 7.75 23.53C7.75 21.27 8.14 19.32 8.92 17.68C9.7 16.04 10.81 14.78 12.25 13.9C13.71 13.02 15.43 12.58 17.41 12.58C19.39 12.58 21.1 13.02 22.54 13.9C24 14.78 25.12 16.04 25.9 17.68C26.68 19.32 27.07 21.27 27.07 23.53C27.07 25.79 26.67 27.74 25.87 29.38C25.09 31.02 23.97 32.28 22.51 33.16C21.05 34.02 19.35 34.45 17.41 34.45ZM17.41 29.47C18.75 29.47 19.79 28.95 20.53 27.91C21.27 26.87 21.64 25.43 21.64 23.59C21.64 21.73 21.27 20.27 20.53 19.21C19.81 18.13 18.77 17.59 17.41 17.59C16.05 17.59 15 18.13 14.26 19.21C13.54 20.27 13.18 21.73 13.18 23.59C13.18 25.43 13.55 26.87 14.29 27.91C15.03 28.95 16.07 29.47 17.41 29.47ZM35.0601 34.45C33.8601 34.45 32.6701 34.32 31.4901 34.06C30.3101 33.8 29.3401 33.44 28.5801 32.98V28.33C29.4801 28.91 30.4901 29.37 31.6101 29.71C32.7501 30.03 33.8201 30.19 34.8201 30.19C36.2201 30.19 37.2601 29.92 37.9401 29.38C38.6201 28.84 38.9601 28.1 38.9601 27.16C38.9601 26.26 38.6101 25.56 37.9101 25.06C37.2301 24.56 36.2701 24.31 35.0301 24.31C34.3301 24.31 33.5901 24.38 32.8101 24.52C32.0501 24.64 31.3901 24.82 30.8301 25.06L28.7901 23.89L29.6301 13.03H43.0701V17.38H34.7601L34.4901 20.68C35.4101 20.44 36.3901 20.32 37.4301 20.32C39.6101 20.32 41.3101 20.9 42.5301 22.06C43.7701 23.2 44.3901 24.85 44.3901 27.01C44.3901 29.35 43.6001 31.18 42.0201 32.5C40.4401 33.8 38.1201 34.45 35.0601 34.45Z" fill="white"/>
</svg>
