<svg width="53" height="47" viewBox="0 0 53 47" fill="none" xmlns="http://www.w3.org/2000/svg">
<rect width="53" height="47" rx="15" fill="#50AA50"/>
<path d="M16.91 34.45C14.97 34.45 13.27 34.02 11.81 33.16C10.35 32.28 9.22 31.02 8.42 29.38C7.64 27.74 7.25 25.79 7.25 23.53C7.25 21.27 7.64 19.32 8.42 17.68C9.2 16.04 10.31 14.78 11.75 13.9C13.21 13.02 14.93 12.58 16.91 12.58C18.89 12.58 20.6 13.02 22.04 13.9C23.5 14.78 24.62 16.04 25.4 17.68C26.18 19.32 26.57 21.27 26.57 23.53C26.57 25.79 26.17 27.74 25.37 29.38C24.59 31.02 23.47 32.28 22.01 33.16C20.55 34.02 18.85 34.45 16.91 34.45ZM16.91 29.47C18.25 29.47 19.29 28.95 20.03 27.91C20.77 26.87 21.14 25.43 21.14 23.59C21.14 21.73 20.77 20.27 20.03 19.21C19.31 18.13 18.27 17.59 16.91 17.59C15.55 17.59 14.5 18.13 13.76 19.21C13.04 20.27 12.68 21.73 12.68 23.59C12.68 25.43 13.05 26.87 13.79 27.91C14.53 28.95 15.57 29.47 16.91 29.47ZM36.8401 34.45C35.1401 34.45 33.6201 34.07 32.2801 33.31C30.9601 32.53 29.9301 31.42 29.1901 29.98C28.4501 28.52 28.0801 26.81 28.0801 24.85C28.0801 22.29 28.5301 20.09 29.4301 18.25C30.3301 16.39 31.5801 14.98 33.1801 14.02C34.7801 13.06 36.6301 12.58 38.7301 12.58C40.1501 12.58 41.4201 12.76 42.5401 13.12V17.62C41.6601 17.14 40.5301 16.9 39.1501 16.9C37.6501 16.9 36.4301 17.31 35.4901 18.13C34.5501 18.93 33.9701 20.12 33.7501 21.7C34.2501 21.18 34.9401 20.77 35.8201 20.47C36.7001 20.17 37.6301 20.02 38.6101 20.02C39.9501 20.02 41.1301 20.3 42.1501 20.86C43.1901 21.4 43.9901 22.19 44.5501 23.23C45.1301 24.27 45.4201 25.52 45.4201 26.98C45.4201 28.4 45.0901 29.68 44.4301 30.82C43.7901 31.94 42.8201 32.83 41.5201 33.49C40.2401 34.13 38.6801 34.45 36.8401 34.45ZM36.9301 30.34C37.8101 30.34 38.5501 30.04 39.1501 29.44C39.7501 28.84 40.0501 28.11 40.0501 27.25C40.0501 26.37 39.7501 25.63 39.1501 25.03C38.5501 24.43 37.8101 24.13 36.9301 24.13C36.0701 24.13 35.3401 24.44 34.7401 25.06C34.1401 25.66 33.8401 26.39 33.8401 27.25C33.8401 28.11 34.1401 28.84 34.7401 29.44C35.3401 30.04 36.0701 30.34 36.9301 30.34Z" fill="white"/>
</svg>
