<svg width="53" height="47" viewBox="0 0 53 47" fill="none" xmlns="http://www.w3.org/2000/svg">
<rect width="53" height="47" rx="15" fill="#50AA50"/>
<path d="M18.41 34.45C16.47 34.45 14.77 34.02 13.31 33.16C11.85 32.28 10.72 31.02 9.92 29.38C9.14 27.74 8.75 25.79 8.75 23.53C8.75 21.27 9.14 19.32 9.92 17.68C10.7 16.04 11.81 14.78 13.25 13.9C14.71 13.02 16.43 12.58 18.41 12.58C20.39 12.58 22.1 13.02 23.54 13.9C25 14.78 26.12 16.04 26.9 17.68C27.68 19.32 28.07 21.27 28.07 23.53C28.07 25.79 27.67 27.74 26.87 29.38C26.09 31.02 24.97 32.28 23.51 33.16C22.05 34.02 20.35 34.45 18.41 34.45ZM18.41 29.47C19.75 29.47 20.79 28.95 21.53 27.91C22.27 26.87 22.64 25.43 22.64 23.59C22.64 21.73 22.27 20.27 21.53 19.21C20.81 18.13 19.77 17.59 18.41 17.59C17.05 17.59 16 18.13 15.26 19.21C14.54 20.27 14.18 21.73 14.18 23.59C14.18 25.43 14.55 26.87 15.29 27.91C16.03 28.95 17.07 29.47 18.41 29.47ZM38.6401 17.38H29.2801V13.03H44.4001V16.57L36.4501 34H31.0501L38.6401 17.38Z" fill="white"/>
</svg>
