<svg width="53" height="47" viewBox="0 0 53 47" fill="none" xmlns="http://www.w3.org/2000/svg">
<rect width="53" height="47" rx="15" fill="#50AA50"/>
<path d="M16.91 34.45C14.97 34.45 13.27 34.02 11.81 33.16C10.35 32.28 9.22 31.02 8.42 29.38C7.64 27.74 7.25 25.79 7.25 23.53C7.25 21.27 7.64 19.32 8.42 17.68C9.2 16.04 10.31 14.78 11.75 13.9C13.21 13.02 14.93 12.58 16.91 12.58C18.89 12.58 20.6 13.02 22.04 13.9C23.5 14.78 24.62 16.04 25.4 17.68C26.18 19.32 26.57 21.27 26.57 23.53C26.57 25.79 26.17 27.74 25.37 29.38C24.59 31.02 23.47 32.28 22.01 33.16C20.55 34.02 18.85 34.45 16.91 34.45ZM16.91 29.47C18.25 29.47 19.29 28.95 20.03 27.91C20.77 26.87 21.14 25.43 21.14 23.59C21.14 21.73 20.77 20.27 20.03 19.21C19.31 18.13 18.27 17.59 16.91 17.59C15.55 17.59 14.5 18.13 13.76 19.21C13.04 20.27 12.68 21.73 12.68 23.59C12.68 25.43 13.05 26.87 13.79 27.91C14.53 28.95 15.57 29.47 16.91 29.47ZM36.6901 34.45C34.0701 34.45 31.9801 33.89 30.4201 32.77C28.8601 31.65 28.0801 30.06 28.0801 28C28.0801 26.82 28.3501 25.82 28.8901 25C29.4501 24.16 30.1901 23.54 31.1101 23.14C30.3501 22.62 29.7701 21.98 29.3701 21.22C28.9701 20.44 28.7701 19.59 28.7701 18.67C28.7701 16.75 29.4801 15.26 30.9001 14.2C32.3401 13.12 34.2701 12.58 36.6901 12.58C39.1101 12.58 41.0301 13.12 42.4501 14.2C43.8701 15.26 44.5801 16.75 44.5801 18.67C44.5801 19.61 44.3801 20.47 43.9801 21.25C43.5801 22.01 43.0101 22.64 42.2701 23.14C43.1901 23.52 43.9201 24.13 44.4601 24.97C45.0001 25.81 45.2701 26.82 45.2701 28C45.2701 30.06 44.4901 31.65 42.9301 32.77C41.3901 33.89 39.3101 34.45 36.6901 34.45ZM36.6901 21.85C37.4701 21.85 38.1101 21.61 38.6101 21.13C39.1301 20.65 39.3901 20.04 39.3901 19.3C39.3901 18.56 39.1301 17.95 38.6101 17.47C38.1101 16.97 37.4701 16.72 36.6901 16.72C35.9101 16.72 35.2701 16.96 34.7701 17.44C34.2701 17.92 34.0201 18.54 34.0201 19.3C34.0201 20.04 34.2701 20.65 34.7701 21.13C35.2701 21.61 35.9101 21.85 36.6901 21.85ZM36.6901 30.34C37.6101 30.34 38.3501 30.08 38.9101 29.56C39.4901 29.02 39.7801 28.32 39.7801 27.46C39.7801 26.62 39.4901 25.93 38.9101 25.39C38.3301 24.85 37.5901 24.58 36.6901 24.58C35.7901 24.58 35.0501 24.85 34.4701 25.39C33.8901 25.93 33.6001 26.62 33.6001 27.46C33.6001 28.32 33.8801 29.02 34.4401 29.56C35.0201 30.08 35.7701 30.34 36.6901 30.34Z" fill="white"/>
</svg>
