<svg width="35" height="35" viewBox="0 0 35 35" fill="none" xmlns="http://www.w3.org/2000/svg">
<rect width="35" height="35" rx="10" fill="#82C882"/>
<path d="M27.2222 15.2565V19.7436C27.2222 20.1403 27.0646 20.5208 26.7841 20.8013C26.5036 21.0818 26.1232 21.2394 25.7265 21.2394H21.2393V25.7266C21.2393 26.1232 21.0817 26.5037 20.8012 26.7842C20.5207 27.0647 20.1403 27.2223 19.7436 27.2223H15.2564C14.8597 27.2223 14.4793 27.0647 14.1988 26.7842C13.9183 26.5037 13.7607 26.1232 13.7607 25.7266V21.2394H9.27351C8.87681 21.2394 8.49637 21.0818 8.21587 20.8013C7.93536 20.5208 7.77778 20.1403 7.77778 19.7436V15.2565C7.77778 14.8598 7.93536 14.4793 8.21587 14.1988C8.49637 13.9183 8.87681 13.7607 9.27351 13.7607H13.7607V9.27356C13.7607 8.87687 13.9183 8.49642 14.1988 8.21592C14.4793 7.93542 14.8597 7.77783 15.2564 7.77783H19.7436C20.1403 7.77783 20.5207 7.93542 20.8012 8.21592C21.0817 8.49642 21.2393 8.87687 21.2393 9.27356V13.7607H25.7265C26.1232 13.7607 26.5036 13.9183 26.7841 14.1988C27.0646 14.4793 27.2222 14.8598 27.2222 15.2565Z" fill="#444053"/>
</svg>
