<svg width="35" height="35" viewBox="0 0 35 35" fill="none" xmlns="http://www.w3.org/2000/svg">
<rect width="35" height="35" rx="10" fill="#82C882"/>
<path d="M22.7882 9.03889L25.9611 12.2118C26.2416 12.4923 26.3992 12.8728 26.3992 13.2694C26.3992 13.6661 26.2416 14.0466 25.9611 14.3271L22.7882 17.5L25.9611 20.6729C26.2416 20.9534 26.3992 21.3339 26.3992 21.7306C26.3992 22.1272 26.2416 22.5077 25.9611 22.7882L22.7882 25.9611C22.5077 26.2416 22.1272 26.3992 21.7306 26.3992C21.3339 26.3992 20.9534 26.2416 20.6729 25.9611L17.5 22.7882L14.3271 25.9611C14.0466 26.2416 13.6661 26.3992 13.2694 26.3992C12.8728 26.3992 12.4923 26.2416 12.2118 25.9611L9.03889 22.7882C8.75839 22.5077 8.60081 22.1272 8.60081 21.7306C8.60081 21.3339 8.75839 20.9534 9.03889 20.6729L12.2118 17.5L9.03889 14.3271C8.75839 14.0466 8.60081 13.6661 8.60081 13.2694C8.60081 12.8728 8.75839 12.4923 9.03889 12.2118L12.2118 9.03889C12.4923 8.75839 12.8728 8.6008 13.2694 8.6008C13.6661 8.6008 14.0466 8.75839 14.3271 9.03889L17.5 12.2118L20.6729 9.03889C20.9534 8.75839 21.3339 8.6008 21.7306 8.6008C22.1272 8.6008 22.5077 8.75839 22.7882 9.03889Z" fill="#534240"/>
</svg>
