<svg width="35" height="35" viewBox="0 0 35 35" fill="none" xmlns="http://www.w3.org/2000/svg">
<path d="M23 0H12C5.37258 0 0 5.37258 0 12V23C0 29.6274 5.37258 35 12 35H23C29.6274 35 35 29.6274 35 23V12C35 5.37258 29.6274 0 23 0Z" fill="#50AA50"/>
<path d="M26.4336 8.57018C25.4247 7.56464 24.0582 7 22.6336 7C21.2091 7 19.8426 7.56464 18.8337 8.57018L9.15732 18.2446C8.1495 19.2522 7.58331 20.6188 7.58331 22.0438C7.58331 23.4688 8.1495 24.8354 9.15732 25.843C10.1651 26.8506 11.532 27.4167 12.9573 27.4167C14.3826 27.4167 15.7495 26.8506 16.7573 25.843L26.4336 16.1686C27.4369 15.1586 28 13.7929 28 12.3694C28 10.9459 27.4369 9.58019 26.4336 8.57018ZM25.2846 15.0198L21.0209 19.2926L15.709 13.9818L19.9827 9.71901C20.3288 9.3674 20.7415 9.08815 21.1966 8.89754C21.6517 8.70692 22.1402 8.60876 22.6336 8.60876C23.1271 8.60876 23.6156 8.70692 24.0707 8.89754C24.5258 9.08815 24.9384 9.3674 25.2846 9.71901C25.6338 10.0664 25.911 10.4794 26.1001 10.9343C26.2892 11.3891 26.3865 11.8768 26.3865 12.3694C26.3865 12.862 26.2892 13.3497 26.1001 13.8045C25.911 14.2594 25.6338 14.6724 25.2846 15.0198ZM24.0649 12.6616C24.1395 12.7371 24.1983 12.8268 24.2377 12.9253C24.2772 13.0238 24.2965 13.1292 24.2946 13.2353C24.2928 13.3414 24.2697 13.446 24.2268 13.5431C24.1839 13.6401 24.122 13.7276 24.0448 13.8004L21.5854 16.1787C21.5099 16.2533 21.4202 16.312 21.3217 16.3514C21.2232 16.3909 21.1177 16.4102 21.0116 16.4083C20.9055 16.4065 20.8008 16.3834 20.7038 16.3405C20.6067 16.2976 20.5192 16.2357 20.4464 16.1585C20.3718 16.083 20.313 15.9934 20.2736 15.8949C20.2341 15.7964 20.2148 15.691 20.2167 15.5849C20.2185 15.4788 20.2416 15.3742 20.2845 15.2771C20.3274 15.1801 20.3893 15.0926 20.4665 15.0198L22.9259 12.6415C23.0798 12.4934 23.2861 12.4123 23.4996 12.4161C23.7131 12.4198 23.9165 12.5082 24.0649 12.6616Z" fill="white"/>
</svg>
