<?xml version="1.0"?>
<svg xmlns="http://www.w3.org/2000/svg" xmlns:xlink="http://www.w3.org/1999/xlink" xmlns:svgjs="http://svgjs.com/svgjs" version="1.1" width="512" height="512" x="0" y="0" viewBox="0 0 24 24" style="enable-background:new 0 0 512 512" xml:space="preserve"><g><g xmlns="http://www.w3.org/2000/svg"><path d="M.305,12.293a1,1,0,0,1,1.414,0l8.172,8.171a3,3,0,0,0,4.242,0l8.172-8.171a1,1,0,0,1,1.414,1.414l-8.172,8.171a5,5,0,0,1-7.07,0L.305,13.707a1,1,0,0,1,0-1.414Z" fill="#ffffff" data-original="#000000"/><path d="M.305,2.293a1,1,0,0,1,1.414,0l9.586,9.586a1,1,0,0,0,1.414,0l9.586-9.586a1,1,0,0,1,1.414,1.414l-9.586,9.586a3,3,0,0,1-4.242,0L.305,3.707a1,1,0,0,1,0-1.414Z" fill="#ffffff" data-original="#000000"/></g></g></svg>
