<svg width="356" height="90" viewBox="0 0 356 90" fill="none" xmlns="http://www.w3.org/2000/svg">
<path d="M25.9062 34.9062C25.9062 34.1979 25.8021 33.5625 25.5938 33C25.3854 32.4167 25 31.875 24.4375 31.375C23.875 30.875 23.0625 30.375 22 29.875C20.9583 29.3542 19.5833 28.8125 17.875 28.25C15.875 27.5833 13.9479 26.8333 12.0938 26C10.2396 25.1458 8.58333 24.1562 7.125 23.0312C5.66667 21.8854 4.51042 20.5521 3.65625 19.0312C2.80208 17.4896 2.375 15.6979 2.375 13.6562C2.375 11.6979 2.8125 9.9375 3.6875 8.375C4.5625 6.79167 5.78125 5.44792 7.34375 4.34375C8.92708 3.21875 10.7812 2.36458 12.9062 1.78125C15.0312 1.17708 17.3542 0.875 19.875 0.875C23.2083 0.875 26.1458 1.45833 28.6875 2.625C31.25 3.77083 33.25 5.40625 34.6875 7.53125C36.1458 9.63542 36.875 12.125 36.875 15H25.9688C25.9688 13.8542 25.7292 12.8438 25.25 11.9688C24.7917 11.0938 24.0938 10.4062 23.1562 9.90625C22.2188 9.40625 21.0417 9.15625 19.625 9.15625C18.25 9.15625 17.0938 9.36458 16.1562 9.78125C15.2188 10.1979 14.5104 10.7604 14.0312 11.4688C13.5521 12.1562 13.3125 12.9167 13.3125 13.75C13.3125 14.4375 13.5 15.0625 13.875 15.625C14.2708 16.1667 14.8229 16.6771 15.5312 17.1562C16.2604 17.6354 17.1354 18.0938 18.1562 18.5312C19.1979 18.9688 20.3646 19.3958 21.6562 19.8125C24.0729 20.5833 26.2188 21.4479 28.0938 22.4062C29.9896 23.3438 31.5833 24.4167 32.875 25.625C34.1875 26.8125 35.1771 28.1667 35.8438 29.6875C36.5312 31.2083 36.875 32.9271 36.875 34.8438C36.875 36.8854 36.4792 38.6979 35.6875 40.2812C34.8958 41.8646 33.7604 43.2083 32.2812 44.3125C30.8021 45.3958 29.0312 46.2188 26.9688 46.7812C24.9062 47.3438 22.6042 47.625 20.0625 47.625C17.7292 47.625 15.4271 47.3333 13.1562 46.75C10.9062 46.1458 8.86458 45.2292 7.03125 44C5.19792 42.75 3.72917 41.1562 2.625 39.2188C1.54167 37.2604 1 34.9375 1 32.25H12C12 33.5833 12.1771 34.7083 12.5312 35.625C12.8854 36.5417 13.4062 37.2812 14.0938 37.8438C14.7812 38.3854 15.625 38.7812 16.625 39.0312C17.625 39.2604 18.7708 39.375 20.0625 39.375C21.4583 39.375 22.5833 39.1771 23.4375 38.7812C24.2917 38.3646 24.9167 37.8229 25.3125 37.1562C25.7083 36.4688 25.9062 35.7188 25.9062 34.9062ZM64.5625 1.5V47H53.5938V1.5H64.5625ZM78.25 1.5V9.96875H40.2188V1.5H78.25ZM82.9062 1.5H100.812C104.312 1.5 107.354 2.02083 109.938 3.0625C112.521 4.10417 114.51 5.64583 115.906 7.6875C117.323 9.72917 118.031 12.25 118.031 15.25C118.031 17.8542 117.625 20.0312 116.812 21.7812C116 23.5312 114.865 24.9792 113.406 26.125C111.969 27.25 110.292 28.1771 108.375 28.9062L104.781 30.9375H89.75L89.6875 22.4688H100.812C102.208 22.4688 103.365 22.2188 104.281 21.7188C105.198 21.2188 105.885 20.5104 106.344 19.5938C106.823 18.6562 107.062 17.5417 107.062 16.25C107.062 14.9375 106.823 13.8125 106.344 12.875C105.865 11.9375 105.156 11.2188 104.219 10.7188C103.302 10.2188 102.167 9.96875 100.812 9.96875H93.875V47H82.9062V1.5ZM107.812 47L97.75 26.875L109.375 26.8125L119.562 46.5312V47H107.812ZM163.156 23.3438V25.1875C163.156 28.6667 162.667 31.7917 161.688 34.5625C160.729 37.3125 159.365 39.6667 157.594 41.625C155.823 43.5625 153.729 45.0521 151.312 46.0938C148.896 47.1146 146.229 47.625 143.312 47.625C140.375 47.625 137.688 47.1146 135.25 46.0938C132.833 45.0521 130.729 43.5625 128.938 41.625C127.167 39.6667 125.792 37.3125 124.812 34.5625C123.854 31.7917 123.375 28.6667 123.375 25.1875V23.3438C123.375 19.8646 123.854 16.7396 124.812 13.9688C125.792 11.1979 127.156 8.84375 128.906 6.90625C130.677 4.94792 132.771 3.45833 135.188 2.4375C137.625 1.39583 140.312 0.875 143.25 0.875C146.167 0.875 148.833 1.39583 151.25 2.4375C153.688 3.45833 155.792 4.94792 157.562 6.90625C159.333 8.84375 160.708 11.1979 161.688 13.9688C162.667 16.7396 163.156 19.8646 163.156 23.3438ZM152.031 25.1875V23.2812C152.031 21.0312 151.833 19.0521 151.438 17.3438C151.062 15.6146 150.5 14.1667 149.75 13C149 11.8333 148.073 10.9583 146.969 10.375C145.885 9.77083 144.646 9.46875 143.25 9.46875C141.792 9.46875 140.521 9.77083 139.438 10.375C138.354 10.9583 137.448 11.8333 136.719 13C135.99 14.1667 135.438 15.6146 135.062 17.3438C134.708 19.0521 134.531 21.0312 134.531 23.2812V25.1875C134.531 27.4167 134.708 29.3958 135.062 31.125C135.438 32.8333 135.99 34.2812 136.719 35.4688C137.469 36.6562 138.385 37.5521 139.469 38.1562C140.573 38.7604 141.854 39.0625 143.312 39.0625C144.708 39.0625 145.948 38.7604 147.031 38.1562C148.115 37.5521 149.021 36.6562 149.75 35.4688C150.5 34.2812 151.062 32.8333 151.438 31.125C151.833 29.3958 152.031 27.4167 152.031 25.1875ZM179.812 1.5V47H168.844V1.5H179.812ZM206.969 1.5L189.344 24.5625L179.031 35.8438L177.031 25.7812L183.625 15.7812L193.438 1.5H206.969ZM194 47L182.25 26.5L190.781 20.2188L206.969 47H194ZM241.094 38.5625V47H216.844V38.5625H241.094ZM220.75 1.5V47H209.781V1.5H220.75ZM237.969 19.5625V27.7188H216.844V19.5625H237.969ZM241.188 1.5V9.96875H216.844V1.5H241.188ZM11.1641 80.3164H4.80078V75.5527H11.1641C12.0312 75.5527 12.7344 75.4062 13.2734 75.1133C13.8125 74.8203 14.2051 74.416 14.4512 73.9004C14.709 73.373 14.8379 72.7812 14.8379 72.125C14.8379 71.4219 14.709 70.7715 14.4512 70.1738C14.2051 69.5762 13.8125 69.0957 13.2734 68.7324C12.7344 68.3574 12.0312 68.1699 11.1641 68.1699H7.12109V89H0.951172V63.4062H11.1641C13.2148 63.4062 14.9785 63.7812 16.4551 64.5312C17.9434 65.2812 19.0859 66.3125 19.8828 67.625C20.6797 68.9258 21.0781 70.4141 21.0781 72.0898C21.0781 73.7422 20.6797 75.1836 19.8828 76.4141C19.0859 77.6445 17.9434 78.6055 16.4551 79.2969C14.9785 79.9766 13.2148 80.3164 11.1641 80.3164ZM24.4004 63.4062H34.4727C36.4414 63.4062 38.1523 63.6992 39.6055 64.2852C41.0586 64.8711 42.1777 65.7383 42.9629 66.8867C43.7598 68.0352 44.1582 69.4531 44.1582 71.1406C44.1582 72.6055 43.9297 73.8301 43.4727 74.8145C43.0156 75.7988 42.377 76.6133 41.5566 77.2578C40.748 77.8906 39.8047 78.4121 38.7266 78.8223L36.7051 79.9648H28.25L28.2148 75.2012H34.4727C35.2578 75.2012 35.9082 75.0605 36.4238 74.7793C36.9395 74.498 37.3262 74.0996 37.584 73.584C37.8535 73.0566 37.9883 72.4297 37.9883 71.7031C37.9883 70.9648 37.8535 70.332 37.584 69.8047C37.3145 69.2773 36.916 68.873 36.3887 68.5918C35.873 68.3105 35.2344 68.1699 34.4727 68.1699H30.5703V89H24.4004V63.4062ZM38.4102 89L32.75 77.6797L39.2891 77.6445L45.0195 88.7363V89H38.4102ZM65.498 84.2539V89H51.8574V84.2539H65.498ZM54.0547 63.4062V89H47.8848V63.4062H54.0547ZM63.7402 73.5664V78.1543H51.8574V73.5664H63.7402ZM65.5508 63.4062V68.1699H51.8574V63.4062H65.5508ZM76.3438 89H70.666L70.7012 84.2539H76.3438C77.5156 84.2539 78.5059 83.9727 79.3145 83.4102C80.1348 82.8477 80.7559 82.0098 81.1777 80.8965C81.6113 79.7715 81.8281 78.3887 81.8281 76.748V75.6406C81.8281 74.4102 81.7051 73.332 81.459 72.4062C81.2246 71.4688 80.873 70.6895 80.4043 70.0684C79.9355 69.4355 79.3496 68.9609 78.6465 68.6445C77.9551 68.3281 77.1582 68.1699 76.2559 68.1699H70.5605V63.4062H76.2559C77.9902 63.4062 79.5781 63.7051 81.0195 64.3027C82.4727 64.8887 83.7266 65.7324 84.7812 66.834C85.8477 67.9238 86.668 69.2188 87.2422 70.7188C87.8281 72.207 88.1211 73.8594 88.1211 75.6758V76.748C88.1211 78.5527 87.8281 80.2051 87.2422 81.7051C86.668 83.2051 85.8535 84.5 84.7988 85.5898C83.7441 86.6797 82.4961 87.5234 81.0547 88.1211C79.625 88.707 78.0547 89 76.3438 89ZM74.1992 63.4062V89H68.0293V63.4062H74.1992ZM97.8945 63.4062V89H91.7422V63.4062H97.8945ZM116.791 80.334H122.943C122.861 82.1152 122.381 83.6855 121.502 85.0449C120.623 86.4043 119.404 87.4648 117.846 88.2266C116.299 88.9766 114.471 89.3516 112.361 89.3516C110.65 89.3516 109.121 89.0645 107.773 88.4902C106.438 87.916 105.301 87.0898 104.363 86.0117C103.438 84.9336 102.729 83.627 102.236 82.0918C101.756 80.5566 101.516 78.8281 101.516 76.9062V75.5176C101.516 73.5957 101.768 71.8672 102.271 70.332C102.787 68.7852 103.514 67.4727 104.451 66.3945C105.4 65.3047 106.537 64.4727 107.861 63.8984C109.186 63.3242 110.656 63.0371 112.273 63.0371C114.5 63.0371 116.381 63.4355 117.916 64.2324C119.451 65.0293 120.641 66.125 121.484 67.5195C122.328 68.9023 122.826 70.4785 122.979 72.248H116.826C116.803 71.2871 116.639 70.4844 116.334 69.8398C116.029 69.1836 115.549 68.6914 114.893 68.3633C114.236 68.0352 113.363 67.8711 112.273 67.8711C111.512 67.8711 110.85 68.0117 110.287 68.293C109.725 68.5742 109.256 69.0195 108.881 69.6289C108.506 70.2383 108.225 71.0293 108.037 72.002C107.861 72.9629 107.773 74.123 107.773 75.4824V76.9062C107.773 78.2656 107.855 79.4258 108.02 80.3867C108.184 81.3477 108.447 82.1328 108.811 82.7422C109.174 83.3516 109.643 83.8027 110.217 84.0957C110.803 84.377 111.518 84.5176 112.361 84.5176C113.299 84.5176 114.09 84.3711 114.734 84.0781C115.379 83.7734 115.877 83.3164 116.229 82.707C116.58 82.0859 116.768 81.2949 116.791 80.334ZM137.727 63.4062V89H131.557V63.4062H137.727ZM145.426 63.4062V68.1699H124.033V63.4062H145.426ZM154.602 63.4062V89H148.449V63.4062H154.602ZM180.6 75.6934V76.7305C180.6 78.6875 180.324 80.4453 179.773 82.0039C179.234 83.5508 178.467 84.875 177.471 85.9766C176.475 87.0664 175.297 87.9043 173.938 88.4902C172.578 89.0645 171.078 89.3516 169.438 89.3516C167.785 89.3516 166.273 89.0645 164.902 88.4902C163.543 87.9043 162.359 87.0664 161.352 85.9766C160.355 84.875 159.582 83.5508 159.031 82.0039C158.492 80.4453 158.223 78.6875 158.223 76.7305V75.6934C158.223 73.7363 158.492 71.9785 159.031 70.4199C159.582 68.8613 160.35 67.5371 161.334 66.4473C162.33 65.3457 163.508 64.5078 164.867 63.9336C166.238 63.3477 167.75 63.0547 169.402 63.0547C171.043 63.0547 172.543 63.3477 173.902 63.9336C175.273 64.5078 176.457 65.3457 177.453 66.4473C178.449 67.5371 179.223 68.8613 179.773 70.4199C180.324 71.9785 180.6 73.7363 180.6 75.6934ZM174.342 76.7305V75.6582C174.342 74.3926 174.23 73.2793 174.008 72.3184C173.797 71.3457 173.48 70.5312 173.059 69.875C172.637 69.2188 172.115 68.7266 171.494 68.3984C170.885 68.0586 170.188 67.8887 169.402 67.8887C168.582 67.8887 167.867 68.0586 167.258 68.3984C166.648 68.7266 166.139 69.2188 165.729 69.875C165.318 70.5312 165.008 71.3457 164.797 72.3184C164.598 73.2793 164.498 74.3926 164.498 75.6582V76.7305C164.498 77.9844 164.598 79.0977 164.797 80.0703C165.008 81.0312 165.318 81.8457 165.729 82.5137C166.15 83.1816 166.666 83.6855 167.275 84.0254C167.896 84.3652 168.617 84.5352 169.438 84.5352C170.223 84.5352 170.92 84.3652 171.529 84.0254C172.139 83.6855 172.648 83.1816 173.059 82.5137C173.48 81.8457 173.797 81.0312 174.008 80.0703C174.23 79.0977 174.342 77.9844 174.342 76.7305ZM205.174 63.4062V89H199.021L189.969 73.0742V89H183.799V63.4062H189.969L199.021 79.332V63.4062H205.174ZM231.225 82.1973C231.225 81.7988 231.166 81.4414 231.049 81.125C230.932 80.7969 230.715 80.4922 230.398 80.2109C230.082 79.9297 229.625 79.6484 229.027 79.3672C228.441 79.0742 227.668 78.7695 226.707 78.4531C225.582 78.0781 224.498 77.6562 223.455 77.1875C222.412 76.707 221.48 76.1504 220.66 75.5176C219.84 74.873 219.189 74.123 218.709 73.2676C218.229 72.4004 217.988 71.3926 217.988 70.2441C217.988 69.1426 218.234 68.1523 218.727 67.2734C219.219 66.3828 219.904 65.627 220.783 65.0059C221.674 64.373 222.717 63.8926 223.912 63.5645C225.107 63.2246 226.414 63.0547 227.832 63.0547C229.707 63.0547 231.359 63.3828 232.789 64.0391C234.23 64.6836 235.355 65.6035 236.164 66.7988C236.984 67.9824 237.395 69.3828 237.395 71H231.26C231.26 70.3555 231.125 69.7871 230.855 69.2949C230.598 68.8027 230.205 68.416 229.678 68.1348C229.15 67.8535 228.488 67.7129 227.691 67.7129C226.918 67.7129 226.268 67.8301 225.74 68.0645C225.213 68.2988 224.814 68.6152 224.545 69.0137C224.275 69.4004 224.141 69.8281 224.141 70.2969C224.141 70.6836 224.246 71.0352 224.457 71.3516C224.68 71.6562 224.99 71.9434 225.389 72.2129C225.799 72.4824 226.291 72.7402 226.865 72.9863C227.451 73.2324 228.107 73.4727 228.834 73.707C230.193 74.1406 231.4 74.627 232.455 75.166C233.521 75.6934 234.418 76.2969 235.145 76.9766C235.883 77.6445 236.439 78.4062 236.814 79.2617C237.201 80.1172 237.395 81.084 237.395 82.1621C237.395 83.3105 237.172 84.3301 236.727 85.2207C236.281 86.1113 235.643 86.8672 234.811 87.4883C233.979 88.0977 232.982 88.5605 231.822 88.877C230.662 89.1934 229.367 89.3516 227.938 89.3516C226.625 89.3516 225.33 89.1875 224.053 88.8594C222.787 88.5195 221.639 88.0039 220.607 87.3125C219.576 86.6094 218.75 85.7129 218.129 84.623C217.52 83.5215 217.215 82.2148 217.215 80.7031H223.402C223.402 81.4531 223.502 82.0859 223.701 82.6016C223.9 83.1172 224.193 83.5332 224.58 83.8496C224.967 84.1543 225.441 84.377 226.004 84.5176C226.566 84.6465 227.211 84.7109 227.938 84.7109C228.723 84.7109 229.355 84.5996 229.836 84.377C230.316 84.1426 230.668 83.8379 230.891 83.4629C231.113 83.0762 231.225 82.6543 231.225 82.1973ZM245.217 63.4062L249.928 74.5156L254.656 63.4062H261.301L253.074 79.8066V89H246.799V79.8066L238.555 63.4062H245.217ZM276.084 82.1973C276.084 81.7988 276.025 81.4414 275.908 81.125C275.791 80.7969 275.574 80.4922 275.258 80.2109C274.941 79.9297 274.484 79.6484 273.887 79.3672C273.301 79.0742 272.527 78.7695 271.566 78.4531C270.441 78.0781 269.357 77.6562 268.314 77.1875C267.271 76.707 266.34 76.1504 265.52 75.5176C264.699 74.873 264.049 74.123 263.568 73.2676C263.088 72.4004 262.848 71.3926 262.848 70.2441C262.848 69.1426 263.094 68.1523 263.586 67.2734C264.078 66.3828 264.764 65.627 265.643 65.0059C266.533 64.373 267.576 63.8926 268.771 63.5645C269.967 63.2246 271.273 63.0547 272.691 63.0547C274.566 63.0547 276.219 63.3828 277.648 64.0391C279.09 64.6836 280.215 65.6035 281.023 66.7988C281.844 67.9824 282.254 69.3828 282.254 71H276.119C276.119 70.3555 275.984 69.7871 275.715 69.2949C275.457 68.8027 275.064 68.416 274.537 68.1348C274.01 67.8535 273.348 67.7129 272.551 67.7129C271.777 67.7129 271.127 67.8301 270.6 68.0645C270.072 68.2988 269.674 68.6152 269.404 69.0137C269.135 69.4004 269 69.8281 269 70.2969C269 70.6836 269.105 71.0352 269.316 71.3516C269.539 71.6562 269.85 71.9434 270.248 72.2129C270.658 72.4824 271.15 72.7402 271.725 72.9863C272.311 73.2324 272.967 73.4727 273.693 73.707C275.053 74.1406 276.26 74.627 277.314 75.166C278.381 75.6934 279.277 76.2969 280.004 76.9766C280.742 77.6445 281.299 78.4062 281.674 79.2617C282.061 80.1172 282.254 81.084 282.254 82.1621C282.254 83.3105 282.031 84.3301 281.586 85.2207C281.141 86.1113 280.502 86.8672 279.67 87.4883C278.838 88.0977 277.842 88.5605 276.682 88.877C275.521 89.1934 274.227 89.3516 272.797 89.3516C271.484 89.3516 270.189 89.1875 268.912 88.8594C267.646 88.5195 266.498 88.0039 265.467 87.3125C264.436 86.6094 263.609 85.7129 262.988 84.623C262.379 83.5215 262.074 82.2148 262.074 80.7031H268.262C268.262 81.4531 268.361 82.0859 268.561 82.6016C268.76 83.1172 269.053 83.5332 269.439 83.8496C269.826 84.1543 270.301 84.377 270.863 84.5176C271.426 84.6465 272.07 84.7109 272.797 84.7109C273.582 84.7109 274.215 84.5996 274.695 84.377C275.176 84.1426 275.527 83.8379 275.75 83.4629C275.973 83.0762 276.084 82.6543 276.084 82.1973ZM297.828 63.4062V89H291.658V63.4062H297.828ZM305.527 63.4062V68.1699H284.135V63.4062H305.527ZM325.76 84.2539V89H312.119V84.2539H325.76ZM314.316 63.4062V89H308.146V63.4062H314.316ZM324.002 73.5664V78.1543H312.119V73.5664H324.002ZM325.812 63.4062V68.1699H312.119V63.4062H325.812ZM331.35 63.4062H336.377L342.09 81.2129L347.803 63.4062H352.83L344.129 89H340.051L331.35 63.4062ZM328.291 63.4062H333.494L334.461 83.0234V89H328.291V63.4062ZM350.686 63.4062H355.906V89H349.719V83.0234L350.686 63.4062Z" fill="#087F5B"/>
</svg>
